HIERARCHY
ROOT hip
{
	OFFSET 0.000000 0.000000 0.000000 
	CHANNELS 6 Xposition Yposition Zposition Xrotation Zrotation Yrotation
	JOINT abdomen
	{
		OFFSET 0.000000 3.402643 0.000000 
		CHANNELS 3 Xrotation Zrotation Yrotation
		JOINT chest
		{
			OFFSET 0.000000 8.438565 -0.680529 
			CHANNELS 3 Xrotation Zrotation Yrotation
			JOINT neck
			{
				OFFSET 0.000000 10.207942 -0.272212 
				CHANNELS 3 Xrotation Zrotation Yrotation
				JOINT head
				{
					OFFSET 0.000000 3.130431 0.000000 
					CHANNELS 3 Xrotation Zrotation Yrotation
					End Site
					{
						OFFSET 0.000000 3.130435 0.000000 
					}
				}
			}
			JOINT lCollar
			{
				OFFSET 3.470700 6.669187 -0.816635 
				CHANNELS 3 Yrotation Zrotation Xrotation
				JOINT lShldr
				{
					OFFSET 3.198488 0.000000 0.000000 
					CHANNELS 3 Zrotation Yrotation Xrotation
					JOINT lForeArm
					{
						OFFSET 10.139888 0.000000 0.000000 
						CHANNELS 3 Yrotation Zrotation Xrotation
						JOINT lHand
						{
							OFFSET 8.370511 0.000000 0.000000 
							CHANNELS 3 Zrotation Yrotation Xrotation
							End Site
							{
								OFFSET 4.083176 0.000000 0.000000 
							}
						}
					}
				}
			}
			JOINT rCollar
			{
				OFFSET -3.470700 6.669187 -0.816635 
				CHANNELS 3 Yrotation Zrotation Xrotation
				JOINT rShldr
				{
					OFFSET -3.198488 0.000000 0.000000 
					CHANNELS 3 Zrotation Yrotation Xrotation
					JOINT rForeArm
					{
						OFFSET -10.139888 0.000000 0.000000 
						CHANNELS 3 Yrotation Zrotation Xrotation
						JOINT rHand
						{
							OFFSET -8.370511 0.000000 0.000000 
							CHANNELS 3 Zrotation Yrotation Xrotation
							End Site
							{
								OFFSET -4.083176 0.000000 0.000000 
							}
						}
					}
				}
			}
		}
	}
	JOINT lThigh
	{
		OFFSET 5.308129 -1.633274 1.361059 
		CHANNELS 3 Xrotation Zrotation Yrotation
		JOINT lShin
		{
			OFFSET -2.041588 -20.007561 0.000000 
			CHANNELS 3 Xrotation Zrotation Yrotation
			JOINT lFoot
			{
				OFFSET 0.000000 -19.190928 -1.224953 
				CHANNELS 3 Xrotation Yrotation Zrotation
				End Site
				{
					OFFSET 0.000000 -2.449906 4.627600 
				}
			}
		}
	}
	JOINT rThigh
	{
		OFFSET -5.308129 -1.633274 1.361059 
		CHANNELS 3 Xrotation Zrotation Yrotation
		JOINT rShin
		{
			OFFSET 2.041588 -20.007561 0.000000 
			CHANNELS 3 Xrotation Zrotation Yrotation
			JOINT rFoot
			{
				OFFSET 0.000000 -19.190928 -1.224953 
				CHANNELS 3 Xrotation Yrotation Zrotation
				End Site
				{
					OFFSET 0.000000 -2.449906 4.627600 
				}
			}
		}
	}
}
MOTION
Frames: 19
Frame Time: 0.016667
-57.741398 40.345600 -26.320578 1.513350 -9.137490 71.195099 -19.122299 -1.351400 -4.192090 24.539600 3.711740 -2.104930 -14.955700 3.519640 -8.795220 0.457880 6.859260 -4.018600 2.000000 -2.000000 0.000000 -64.150703 4.660330 -148.973999 72.305199 -0.256404 0.130298 0.045729 -0.018718 -143.621002 -2.000000 2.000000 0.000000 -95.770897 -170.664993 7.788770 -53.652802 0.295878 0.110122 -0.055636 0.019884 -144.041000 5.884405 -8.886912 7.193009 21.288857 5.366983 1.272757 -31.185493 6.970122 -0.062162 -51.225468 1.760596 3.596906 32.882816 -1.833441 -2.814688 -6.356470 0.793369 -1.536194 
-56.765743 40.424877 -25.787868 1.382780 -8.610810 70.544296 -19.182199 -1.402130 -4.495270 24.675100 3.379940 -2.256620 -14.600000 3.256080 -8.241640 0.547254 6.694010 -3.772340 2.000000 -2.000000 0.000000 -64.452103 5.483080 -147.774002 72.852097 -0.255159 0.130689 0.045682 -0.018310 -143.473999 -2.000000 2.000000 0.000000 -95.280998 -167.188995 7.604260 -55.859901 0.291577 0.113161 -0.057761 0.032667 -148.669998 7.696700 -8.820364 8.026104 21.063295 6.131203 1.243371 -28.191252 5.770560 -1.438749 -50.708736 2.291298 3.553043 32.137623 -1.834348 -2.774336 -7.654294 -0.265205 -1.632362 
-55.724590 40.548428 -25.234379 1.094760 -8.045430 70.031097 -19.328899 -1.478300 -4.810870 24.683300 2.970810 -2.432020 -13.907700 2.893450 -7.684520 0.735179 6.451170 -3.531730 2.000000 -2.000000 0.000000 -64.909599 6.823680 -146.419006 73.399002 -0.253910 0.131067 0.045748 -0.018881 -143.679993 -2.000000 2.000000 0.000000 -95.093201 -163.544998 7.966350 -57.441898 0.288424 0.115237 -0.059818 0.041341 -151.852997 8.874743 -8.130152 9.056857 22.388453 6.384841 1.329996 -24.782833 3.392927 -2.774021 -49.825359 2.620070 2.041920 31.716478 -1.827754 -2.753685 -9.084631 -0.842072 -1.647423 
-54.646027 40.690250 -24.674149 0.748474 -7.431010 69.492599 -19.508301 -1.621640 -4.999550 24.613100 2.445040 -2.551010 -12.999500 2.644220 -7.188380 1.011240 6.218240 -3.312990 2.000000 -2.000000 0.000000 -65.347397 8.457580 -144.878998 73.906799 -0.252748 0.131408 0.046097 -0.021620 -144.666000 -2.000000 2.000000 0.000000 85.134300 -20.136801 -171.779007 -58.584499 0.286112 0.116681 -0.061437 0.046993 -153.953003 9.324018 -6.802674 10.255666 25.223392 5.853523 1.496125 -20.669514 0.086849 -3.638913 -48.681889 2.832618 -0.400561 31.502260 -1.811300 -2.754569 -10.082898 -0.530876 -1.456192 
-53.559269 40.815220 -24.107851 0.629513 -6.864820 68.742500 -19.718700 -1.722540 -5.130220 24.573099 2.113940 -2.644310 -11.957300 2.330050 -6.633540 1.375450 5.956040 -3.056650 2.000000 -2.000000 0.000000 -66.039299 10.159600 -143.447006 74.190002 -0.252098 0.131594 0.046750 -0.025974 -146.238007 -2.000000 2.000000 0.000000 85.225800 -23.613501 -171.712997 -59.473202 0.284294 0.117772 -0.062802 0.051236 -155.544998 8.990727 -5.428617 11.632106 29.051350 5.095005 1.744951 -15.497951 -3.627668 -3.952660 -47.507813 3.007773 -2.963857 31.613729 -1.778840 -2.801724 -10.466773 0.848690 -1.003571 
-52.497002 40.895016 -23.540768 0.845072 -6.376270 67.815804 -19.938400 -1.808390 -5.276670 24.563101 2.036030 -2.718500 -11.024500 1.753460 -6.003240 1.739450 5.595860 -2.769470 2.000000 -2.000000 0.000000 -66.897598 11.851200 -142.296997 74.219299 -0.252031 0.131613 0.047497 -0.030174 -147.761993 -2.000000 2.000000 0.000000 85.170998 -26.669901 -171.837997 -60.098202 0.283005 0.118523 -0.063524 0.053330 -156.335999 7.948300 -4.265400 12.895908 33.503227 4.342880 2.087501 -9.676905 -6.775685 -3.540932 -46.324657 3.233211 -4.550746 32.037827 -1.747596 -2.841180 -10.352415 2.692613 -0.474270 
-51.489552 40.897587 -22.985817 1.227090 -5.848280 66.837502 -20.079800 -1.934180 -5.418180 24.504499 2.075150 -2.815540 -10.504800 1.100670 -5.376560 1.975440 5.215620 -2.488960 2.000000 -2.000000 0.000000 -67.678101 13.386100 -141.382004 74.033699 -0.252457 0.131492 0.048046 -0.032909 -148.757996 -2.000000 2.000000 0.000000 -94.815498 -150.763000 7.755740 -60.586399 0.281992 0.119099 -0.063163 0.052297 -155.945007 6.262593 -3.313172 13.569180 38.748466 3.692220 2.451752 -4.443315 -8.807534 -2.756894 -45.011024 3.636466 -4.722377 32.796135 -1.704832 -2.907798 -10.107766 4.189901 -0.035598 
-50.532879 40.820625 -22.465803 1.725410 -5.036790 65.942001 -20.023600 -2.114650 -5.622780 24.358200 2.172950 -2.941320 -10.388700 0.596495 -4.780140 2.152190 4.932750 -2.209890 2.000000 -2.000000 0.000000 -68.478600 14.490700 -140.828003 73.555199 -0.253553 0.131173 0.048338 -0.034273 -149.255997 -2.000000 2.000000 0.000000 -94.841797 -148.977005 7.316810 -60.928299 0.281281 0.119498 -0.062337 0.049834 -155.016998 4.317726 -2.711262 13.460725 44.416950 3.107410 2.835696 -1.178522 -9.551572 -2.065387 -43.530357 3.929421 -3.951532 34.032570 -1.680813 -2.976002 -9.781260 5.141828 0.269241 
-49.585754 40.715988 -21.994432 2.212510 -4.030210 65.312897 -19.844101 -2.309640 -5.978200 24.055401 2.251660 -3.153100 -10.635100 0.223512 -4.215080 2.250290 4.776640 -1.933010 2.000000 -2.000000 0.000000 -69.562599 15.047600 -140.692001 72.617699 -0.255693 0.130523 0.048467 -0.034861 -149.470993 -2.000000 2.000000 0.000000 -95.084099 -147.970993 7.001820 -61.104000 0.280914 0.119701 -0.061876 0.048402 -154.479996 1.851055 -2.321906 12.591392 50.944519 2.690211 3.178096 -0.957741 -8.608197 -1.907774 -42.212894 3.829903 -3.202993 35.590721 -1.677281 -3.051220 -8.037031 5.654943 0.252043 
-48.620319 40.621021 -21.585072 2.191370 -3.405720 64.918198 -19.709200 -2.358560 -6.417670 23.517300 1.950520 -3.375430 -11.364700 -0.101421 -3.755340 2.142520 4.737540 -1.706310 2.000000 -2.000000 0.000000 -71.037498 15.105900 -140.837997 71.035698 -0.259280 0.129346 0.048420 -0.034647 -149.391998 -2.000000 2.000000 0.000000 -95.200302 -147.533997 6.297620 -61.152901 0.280812 0.119757 -0.061843 0.048298 -154.440994 -0.728542 -1.902338 11.033040 56.639984 2.237484 3.457445 -2.483209 -5.725456 -1.779259 -41.399818 3.792647 -3.298558 37.159695 -1.651314 -3.128220 -5.082604 5.334257 -0.026738 
-47.642189 40.498371 -21.251089 1.330570 -3.475630 64.391502 -19.614401 -2.008980 -6.822530 22.969299 1.239140 -3.521810 -12.628800 -0.528608 -3.323860 1.730970 4.727390 -1.524950 2.000000 -2.000000 0.000000 -73.186798 14.733500 -141.520996 68.643097 -0.264639 0.127379 0.048182 -0.033551 -148.992004 -2.000000 2.000000 0.000000 -95.170898 -147.692993 5.057770 -61.016102 0.281097 0.119600 -0.062000 0.048793 -154.626999 -3.944981 -0.564939 9.121014 61.970066 1.724095 3.734883 -4.889872 -2.827136 -1.520407 -41.056957 4.413184 -4.382944 38.877838 -1.583688 -3.224948 -3.006082 4.866121 -0.179613 
-46.664959 40.305832 -20.978109 0.176178 -3.847640 63.454300 -19.441299 -1.425940 -7.047630 22.675800 0.419635 -3.539090 -14.059100 -1.173800 -2.845200 1.192240 4.619230 -1.349100 2.000000 -2.000000 0.000000 -75.932800 13.900600 -143.014008 65.391197 -0.271781 0.124351 0.047912 -0.032267 -148.522995 -2.000000 2.000000 0.000000 -95.133202 -148.662994 3.624610 -60.410702 0.282357 0.118893 -0.062092 0.049080 -154.733994 -7.675473 0.958176 7.112265 67.008881 1.250658 3.945668 -7.767954 -1.395512 -1.283693 -40.851936 5.412811 -5.688441 40.862587 -1.489820 -3.369786 -3.009164 5.216120 -0.077466 
-45.702221 40.051914 -20.723551 -0.430639 -3.808490 62.216000 -19.174299 -1.011390 -6.968890 22.558599 -0.292790 -3.438020 -15.234800 -1.966100 -2.362640 0.712771 4.374420 -1.198580 2.000000 -2.000000 0.000000 -78.747902 12.529100 -145.287003 61.279800 -0.280546 0.119950 0.047569 -0.030550 -147.897995 -2.000000 2.000000 0.000000 -95.038597 -150.628998 2.242810 -58.955601 0.285354 0.117140 -0.061959 0.048663 -154.578003 -11.396525 1.579641 5.070092 71.028389 0.798344 4.139183 -10.130952 -1.509880 -1.271421 -40.913353 5.850644 -6.504263 43.833630 -1.403454 -3.512090 -4.409792 6.172362 0.233920 
-44.765099 39.749355 -20.470114 -0.420551 -3.134680 60.921398 -18.846600 -0.892726 -6.649400 22.461100 -0.839380 -3.270240 -16.136499 -2.887610 -1.912980 0.331781 4.003110 -1.086620 2.000000 -2.000000 0.000000 -81.378403 10.618200 -148.585999 56.318901 -0.290669 0.113821 0.046790 -0.026217 -146.326004 -2.000000 2.000000 0.000000 -95.033096 -153.727997 1.014830 -56.396999 0.290513 0.113876 -0.061317 0.046600 -153.806000 -15.111724 1.200483 3.122091 74.300957 0.406583 4.284340 -11.843468 -2.592673 -1.575237 -40.886726 5.516025 -6.791647 47.108860 -1.271472 -3.657583 -6.194869 6.912424 0.587830 
-43.845272 39.398140 -20.231621 -0.400707 -2.275340 59.693600 -18.478600 -0.808311 -6.337810 22.393000 -1.298160 -3.118000 -16.847601 -3.783100 -1.450220 0.039049 3.632140 -0.964160 2.000000 -2.000000 0.000000 -83.981201 8.381120 -153.600998 50.967300 -0.300949 0.106255 0.045632 -0.017875 -143.317993 -2.000000 2.000000 0.000000 -95.418701 -157.783005 -0.127434 -53.008301 0.297112 0.109204 -0.059974 0.041922 -152.067993 -18.887428 0.689348 1.343073 76.975342 0.041485 4.397182 -13.205457 -3.932477 -2.025729 -40.751606 4.993423 -7.105516 50.443123 -1.135233 -3.826230 -8.140066 7.280979 0.926888 
-42.951057 39.005989 -19.997171 -0.674105 -1.640510 58.398201 -18.144400 -0.645241 -5.899380 22.354500 -1.864320 -2.881060 -17.524799 -4.434550 -1.110920 -0.273371 3.348950 -0.893855 2.000000 -2.000000 0.000000 -86.027603 6.228540 -159.945007 46.308998 -0.309289 0.098913 0.044846 -0.008256 -139.871002 -2.000000 2.000000 0.000000 -95.784103 -162.044998 -1.646720 -49.570801 0.303511 0.104075 -0.058293 0.035126 -149.567993 -23.057657 0.808680 -0.160008 79.738029 -0.303997 4.514101 -14.757746 -4.933527 -2.432305 -40.534866 4.905660 -7.368041 53.463474 -0.990300 -3.969853 -10.197601 7.362091 1.250216 
-42.124249 38.600986 -19.764521 -1.006050 -1.103350 56.777199 -17.897800 -0.472258 -5.127930 22.237900 -2.508690 -2.486080 -18.354099 -4.688300 -0.991240 -0.644793 3.231220 -0.887053 2.000000 -2.000000 0.000000 -86.939796 4.495760 -166.093994 43.545399 -0.313945 0.094245 0.044664 -0.003173 -138.054993 -2.000000 2.000000 0.000000 -96.021400 -165.916000 -3.355960 -46.875500 0.308307 0.099790 -0.057181 0.029744 -147.604996 -27.626215 1.477907 -1.202675 82.618477 -0.660282 4.606931 -16.305914 -5.415895 -2.717736 -40.233768 5.293636 -6.919465 56.042793 -0.844920 -4.089019 -12.174508 7.224458 1.550673 
-41.378887 38.220432 -19.561300 -1.337960 -0.595541 54.779499 -17.654600 -0.315189 -4.065950 21.974899 -3.211910 -1.954900 -19.398500 -4.673560 -1.001620 -1.065440 3.249520 -0.931978 2.000000 -2.000000 0.000000 -86.443703 3.323020 -170.641998 43.349998 -0.314266 0.093906 0.044791 -0.007108 -139.460999 -2.000000 2.000000 0.000000 -96.472603 -169.298004 -4.392450 -45.264099 0.311076 0.097122 -0.057110 0.029367 -147.468994 -32.642696 2.651673 -1.936550 85.735596 -1.047246 4.676702 -17.895739 -5.583898 -2.922350 -39.954632 6.081437 -5.681513 58.463837 -0.699589 -4.165664 -13.907131 7.183980 1.852714 
-40.692726 37.916702 -19.397396 -1.621110 -0.234281 52.828899 -17.435101 -0.168285 -2.921570 21.731300 -3.944490 -1.380120 -21.229500 -4.705950 -1.096140 -1.104740 3.307770 -0.998011 2.000000 -2.000000 0.000000 95.401199 177.492996 6.869470 45.186001 -0.311208 0.097043 0.045564 -0.017250 -143.093994 -2.000000 2.000000 0.000000 -97.391701 -172.139999 -4.492700 -44.629299 0.312146 0.096050 -0.057634 0.032051 -148.445007 -38.165764 4.046013 -2.897752 88.962517 -1.426493 4.751234 -19.658518 -5.862288 -3.212126 -39.664669 6.885478 -4.298593 60.316868 -0.588601 -4.237340 -15.061461 7.489820 2.146762 
